<svg xmlns="http://www.w3.org/2000/svg" width="18" height="18" viewBox="0 0 18 18">
  <path fill="#fff" d="M15.4433984,9.84133333 L17.3423984,11.3202222 C17.5133984,11.4546667 17.5583984,11.6966667 17.4503984,11.8938519 L15.6503984,14.995037 C15.5423984,15.1922222 15.3083984,15.2728889 15.1013984,15.1922222 L12.8603984,14.2959259 C12.3923984,14.6454815 11.8883984,14.9502222 11.3393984,15.1742963 L10.9973984,17.5494815 C10.9703984,17.7645926 10.7813984,17.9259259 10.5563984,17.9259259 L6.95639844,17.9259259 C6.73139844,17.9259259 6.54239844,17.7645926 6.51539844,17.5494815 L6.17339844,15.1742963 C5.62439844,14.9502222 5.12039844,14.6544444 4.65239844,14.2959259 L2.41139844,15.1922222 C2.21339844,15.2639259 1.97039844,15.1922222 1.86239844,14.995037 L0.0623984435,11.8938519 C-0.0456015565,11.6966667 -0.000601556462,11.4546667 0.170398444,11.3202222 L2.06939844,9.84133333 C2.03339844,9.55451852 2.00639844,9.25874074 2.00639844,8.96296296 C2.00639844,8.66718519 2.03339844,8.37140741 2.06939844,8.08459259 L0.170398444,6.6057037 C-0.000601556462,6.47125926 -0.0546015565,6.22925926 0.0623984435,6.03207407 L1.86239844,2.93088889 C1.97039844,2.7337037 2.20439844,2.65303704 2.41139844,2.7337037 L4.65239844,3.63 C5.12039844,3.28044444 5.62439844,2.9757037 6.17339844,2.75162963 L6.51539844,0.376444444 C6.54239844,0.161333333 6.73139844,0 6.95639844,0 L10.5563984,0 C10.7813984,0 10.9703984,0.161333333 10.9973984,0.376444444 L11.3393984,2.75162963 C11.8883984,2.9757037 12.3923984,3.27148148 12.8603984,3.63 L15.1013984,2.7337037 C15.2993984,2.662 15.5423984,2.7337037 15.6503984,2.93088889 L17.4503984,6.03207407 C17.5583984,6.22925926 17.5133984,6.47125926 17.3423984,6.6057037 L15.4433984,8.08459259 C15.4793984,8.37140741 15.5063984,8.65822222 15.5063984,8.96296296 C15.5063984,9.2677037 15.4793984,9.55451852 15.4433984,9.84133333 Z M8.59090909,11.4074074 C9.94441558,11.4074074 11.0454545,10.3108995 11.0454545,8.96296296 C11.0454545,7.61502646 9.94441558,6.51851852 8.59090909,6.51851852 C7.2374026,6.51851852 6.13636364,7.61502646 6.13636364,8.96296296 C6.13636364,10.3108995 7.2374026,11.4074074 8.59090909,11.4074074 Z"/>
</svg>
