<?xml version="1.0" encoding="utf-8"?>
<!-- Generator: Adobe Illustrator 22.1.0, SVG Export Plug-In . SVG Version: 6.00 Build 0)  -->
<svg version="1.1" id="Calque_1" xmlns="http://www.w3.org/2000/svg" xmlns:xlink="http://www.w3.org/1999/xlink" x="0px" y="0px"
	 viewBox="0 0 18 18" style="enable-background:new 0 0 18 18;" xml:space="preserve">
<style type="text/css">
	.st0{fill:#B5C0D7;}
</style>
<path class="st0" d="M15.4,9.8l1.9,1.5c0.2,0.1,0.2,0.4,0.1,0.6L15.7,15c-0.1,0.2-0.3,0.3-0.5,0.2l-2.2-0.9c-0.5,0.3-1,0.7-1.5,0.9
	L11,17.5c0,0.2-0.2,0.4-0.4,0.4H7c-0.2,0-0.4-0.2-0.4-0.4l-0.3-2.4c-0.5-0.2-1.1-0.5-1.5-0.9l-2.2,0.9c-0.2,0.1-0.4,0-0.5-0.2
	l-1.8-3.1C0,11.7,0,11.5,0.2,11.3l1.9-1.5C2,9.6,2,9.3,2,9c0-0.3,0-0.6,0.1-0.9L0.2,6.6C0,6.5-0.1,6.2,0.1,6l1.8-3.1
	C2,2.7,2.2,2.7,2.4,2.7l2.2,0.9c0.5-0.3,1-0.7,1.5-0.9l0.3-2.4C6.5,0.2,6.7,0,7,0h3.6C10.8,0,11,0.2,11,0.4l0.3,2.4
	c0.5,0.2,1.1,0.5,1.5,0.9l2.2-0.9c0.2-0.1,0.4,0,0.5,0.2L17.5,6c0.1,0.2,0.1,0.4-0.1,0.6l-1.9,1.5c0,0.3,0.1,0.6,0.1,0.9
	S15.5,9.6,15.4,9.8z M8.6,11.4c1.4,0,2.5-1.1,2.5-2.4S9.9,6.5,8.6,6.5S6.1,7.6,6.1,9S7.2,11.4,8.6,11.4z"/>
</svg>
