<svg xmlns="http://www.w3.org/2000/svg" width="16" height="12" viewBox="0 0 16 12">
  <g fill="#222655">
    <path d="M13.0909091 3L10.1818182 6 12.3636364 6C12.3636364 8.4825 10.4072727 10.5 8 10.5 7.26545455 10.5 6.56727273 10.3125 5.96363636 9.975L4.90181818 11.07C5.79636364 11.655 6.85818182 12 8 12 11.2145455 12 13.8181818 9.315 13.8181818 6L16 6 13.0909091 3 13.0909091 3zM3.63636364 6C3.63636364 3.5175 5.59272727 1.5 8 1.5 8.73454545 1.5 9.43272727 1.6875 10.0363636 2.025L11.0981818.93C10.2036364.345 9.14181818 0 8 0 4.78545455 0 2.18181818 2.685 2.18181818 6L0 6 2.90909091 9 5.81818182 6 3.63636364 6 3.63636364 6z"/>
  </g>
</svg>
