<?xml version="1.0" encoding="utf-8"?>
<!-- Generator: Adobe Illustrator 22.1.0, SVG Export Plug-In . SVG Version: 6.00 Build 0)  -->
<svg version="1.1" id="Calque_1" xmlns="http://www.w3.org/2000/svg" xmlns:xlink="http://www.w3.org/1999/xlink" x="0px" y="0px"
	 viewBox="0 0 4439 806" style="enable-background:new 0 0 4439 806;" xml:space="preserve">
<style type="text/css">
	.st0{fill:#FFFFFF;}
	.st1{clip-path:url(#SVGID_2_);}
	.st2{fill:#75A0D5;}
	.st3{clip-path:url(#SVGID_4_);}
</style>
<g>
	<path class="st0" d="M498.5,15.8c-214.1-53.5-431,77-484.4,291.5c-53.4,214.4,76.9,431.6,291,485c214.2,53.5,431.1-77,484.5-291.4
		C843,286.5,712.6,69.3,498.5,15.8z M615.3,556.8c-28.9,82.6-97.5,89.6-188.7,72.3l-22.1,88.8l-53.1-13.3l20.7-84.9l0.7-2.9h0
		l15.9-65.2c47.3,10.5,111.3,17.2,123.5-31.9c6.5-26.3-6.1-45.2-26.2-59c7-0.4,13.9-0.8,20.9-1.2c15.2-0.9,22.6-1.9,37.6-4.5l0,0
		c15.1-2.6,33.3-8.5,46.2-13.2c0.6-0.2,1.2-0.5,1.8-0.8C620.3,465.9,633.3,505.4,615.3,556.8z M634.5,348.2c-3,19.9-10,39.6-24,54.4
		c-11.9,12.7-31.1,19.6-47.1,24.9c-19.1,6.4-39.8,10.2-60.1,10.5c-13.6,0.2-27.2-0.5-40.7-1.5c-22-1.7-44.7-3.5-66.3-8.5
		c-7-1.6-13.2-3-19.4-4.5l-29.4,117.9l-17.4,64.4l-21.9,88.1l-53.4-13.4l22.1-89c-12.5-3.2-25.2-6.6-38.1-9.9l-69.6-17.4l26.6-61.3
		c0,0,39.4,10.5,38.9,9.7c15.2,3.8,21.9-6.1,24.5-12.7l30.1-120.8l13.9-56l16-64.3c0.7-11.4-3.3-25.7-24.9-31.1
		c0.8-0.6-38.9-9.7-38.9-9.7l14.2-57.2l73.7,18.7c11.4,2.8,22.7,5.5,34.2,8l21.9-88l53.5,13.3l-21.5,86.2
		c14.3,3.2,28.6,6.6,42.9,10.1l21.3-85.7l53.5,13.4h0l-21.9,88C594.8,248.3,644.2,283.3,634.5,348.2z"/>
</g>
<g transform="translate(0 1)">
	<g>
		<defs>
			<path id="SVGID_1_" d="M2971.1,211.6c47.3,0,82.9,8.9,106.9,26.8s36,43.8,36,78c0,26.4-5,49.2-14.9,68.4
				c-10,19.2-24.1,35-42.5,47.4c-18.3,12.4-40.4,21.6-66.2,27.6c-25.8,6-54.5,9-86.1,9h-40.4l-36.3,150.1h-56.8l96.1-398
				c16.4-3.9,33.8-6.4,52.1-7.6C2937.3,212.2,2954.7,211.6,2971.1,211.6L2971.1,211.6z M2964.1,259.3c-27.7,0-44.5,0.8-50.4,2.3
				l-38.7,160h36.9c16.4,0,33.2-1.5,50.4-4.4c17.2-2.9,32.6-8.1,46.3-15.4c13.6-7.3,25.1-17.8,33.7-30.6c8.8-13,13.2-29.8,13.2-50.3
				c0-22.1-8.2-37.9-24.6-47.4C3014.4,264.1,2992.2,259.3,2964.1,259.3L2964.1,259.3z M3263.5,310c4.7,0,10,0.2,15.8,0.6
				c5.9,0.4,11.6,1.1,17.3,2c5.7,1,10.8,1.9,15.5,2.9c4.7,1,8.2,2,10.5,3.2l-15.8,47.1c-7.8-3.1-16.8-5.4-26.9-7
				c-9.7-1.5-19.5-2.3-29.3-2.3c-8.2,0-16.3,0.6-24.3,1.7c-8,1.2-14.9,2.7-20.8,4.7l-62.1,256H3089l70.3-290.9
				c15.6-5.4,32.4-9.8,50.4-13.1C3227.4,311.6,3245.5,310,3263.5,310L3263.5,310z M3336.9,618.9h-54.5l73.2-302.6h54.5L3336.9,618.9
				z M3400.2,261.7c-9,0-16.5-2.7-22.6-8.1c-6.1-5.4-9.1-13-9.1-22.7c0-12.4,3.9-22.2,11.7-29.4c7.8-7.2,16.6-10.8,26.4-10.8
				c9,0,16.6,2.8,22.8,8.4c6.2,5.6,9.4,13.5,9.4,23.6c0,11.6-4.1,21-12.3,28.2C3418.3,258.1,3409.6,261.7,3400.2,261.7L3400.2,261.7
				z M3472.4,618.9c-5.1-21.6-9.6-43.3-13.5-65.2c-4.4-24.6-8.4-49.4-11.7-74.2c-3.6-26.6-6.5-53.3-8.8-80
				c-2.3-27.5-3.9-55.3-4.7-83.2h55.1c0.4,19,1.3,39.3,2.6,60.8c1.4,21.5,3,43.1,5,64.6c2,21.5,4.3,42.3,7,62.3
				c2.7,20,5.7,38.1,8.8,54.4c11.7-14.7,23.9-32.1,36.6-52.1c13-20.5,25.2-41.4,36.6-62.8c11.7-21.9,22.5-43.9,32.2-66
				c9.8-22.1,17.6-42.5,23.4-61.1h55.1c-8.6,25.6-19.5,52.2-32.8,79.7c-13.3,27.5-27.6,54.6-43.1,81.2s-31.6,52.1-48.6,76.5
				c-17,24.4-33.5,46.2-49.5,65.2H3472.4L3472.4,618.9z M3869.7,622.4c-2.1-4.7-4.1-9.4-5.9-14.3c-2-5.4-3.6-10.9-4.7-16.6
				c-8.6,7.8-20.1,15.5-34.6,23.3c-14.5,7.8-32.2,11.6-53.3,11.6c-17.2,0-31.9-2.7-44.2-8.1c-12.3-5.4-22.4-13-30.2-22.7
				c-7.8-9.7-13.6-21.1-17.3-34.3c-3.7-13.2-5.6-27.7-5.6-43.6c0-26,4.4-51.4,13.2-76.2c8.6-24.5,22.1-47.1,39.5-66.3
				c17.6-19.4,39.6-35.1,66.2-47.1c26.6-12,57.6-18,93.1-18c10.5,0,22.8,1.2,36.9,3.5c14.1,2.3,26.2,6.2,36.3,11.6l-45.1,182.7
				c-2,8.9-3.6,17.5-5,25.6c-1.4,8.1-2.1,16.7-2.1,25.6s0.8,17.9,2.3,27.1c1.6,9.1,4.3,18.9,8.2,29.4L3869.7,622.4L3869.7,622.4z
				 M3782.4,580.5c16.4,0,30.5-3.5,42.2-10.5c11.7-7,21.9-15.1,30.5-24.4c0.4-6.6,1.1-13.5,2.1-20.7c1-7.2,2.2-14.5,3.8-21.8
				l35.1-144.3c-1.9-0.8-5.2-1.4-9.7-1.8c-4-0.4-8-0.6-12-0.6c-22.3,0-42.4,4.3-60.3,12.8s-33.3,19.9-46,34
				c-12.7,14.2-22.5,30.6-29.3,49.5c-6.8,18.8-10.2,38.5-10.2,59.1c0,8.1,0.8,16.4,2.3,24.7c1.6,8.3,4.4,15.7,8.5,22.1
				c4.1,6.4,9.6,11.6,16.4,15.7C3762.6,578.5,3771.5,580.5,3782.4,580.5L3782.4,580.5z M4059.7,627.1c-29.3,0-50.8-6.4-64.4-19.2
				c-13.7-12.8-20.5-31.4-20.5-55.9c0-15.9,2.7-36.3,8.2-61.1l62.7-258.9l56.8-9.3l-22.8,93.7h103.7l-11.1,45.4h-103.7l-32.2,133.8
				c-4.7,18.2-7,34.1-7,47.7c0,12.8,3.5,22,10.5,27.6c7,5.6,18.7,8.4,35.1,8.4c11.3,0,22.5-1.8,33.4-5.5
				c10.9-3.7,19.3-7.1,25.2-10.2l4.1,46c-5.9,3.5-15.8,7.3-29.9,11.4C4093.6,625,4077.6,627.1,4059.7,627.1L4059.7,627.1z
				 M4230.9,460.1c22.6-0.8,43.3-2.2,62.1-4.4c18.7-2.1,35-5.8,48.6-11.1c13.7-5.2,24.3-12.3,31.9-21.2c7.6-8.9,11.4-20.6,11.4-34.9
				c0-3.5-0.7-7.2-2-11.1c-1.4-3.9-3.7-7.5-7-10.8c-3.3-3.3-7.9-6-13.8-8.2c-5.9-2.1-13.1-3.2-21.7-3.2c-13.7,0-26.5,2.9-38.4,8.7
				c-11.9,5.8-22.7,13.6-31.9,23c-9.4,9.5-17.4,20.6-24,33.2C4239.5,432.8,4234.4,446.2,4230.9,460.1L4230.9,460.1z M4286.5,626.5
				c-19.9,0-37.1-2.8-51.5-8.4c-14.5-5.6-26.6-13.4-36.3-23.3c-9.7-9.8-17.1-21.6-21.7-34.6c-4.7-13.2-7-27.2-7-41.9
				c0-27.2,4.1-53.3,12.3-78.6c8.2-25.2,19.9-47.5,35.1-66.9c15-19.2,34-35,55.6-46.3c21.9-11.4,46.7-17.2,74.4-17.2
				c16,0,29.8,2,41.3,6.1c11.5,4.1,20.9,9.6,28.1,16.6c7.1,6.8,12.6,15,16.1,24.1c3.5,9.1,5.3,18.5,5.3,28.2
				c0,18.2-3.3,33.7-10,46.3c-6.6,12.6-15.4,23.2-26.4,31.7s-23.7,15.1-38.4,19.8c-15,4.7-30.2,8.4-45.7,11.1
				c-15.8,2.7-31.8,4.6-48,5.5c-16.2,1-31.5,1.8-46,2.6c-0.3,2.5-0.5,5-0.6,7.6v4.7c0,8.9,1.1,17.4,3.2,25.3
				c2.1,7.9,6.3,15.1,12,20.9c5.9,6,14,10.8,24.3,14.3c10.3,3.5,23.9,5.2,40.7,5.2c7.4,0,15.1-0.7,23.1-2c7.7-1.3,15.3-3,22.8-5.2
				c6.5-1.9,13-4,19.3-6.4c5.7-2.1,9.7-4.2,12-6.1l4.7,46c-7.8,4.3-20.4,8.8-37.8,13.7C4330.4,624.1,4310,626.5,4286.5,626.5
				L4286.5,626.5z"/>
		</defs>
		<clipPath id="SVGID_2_">
			<use xlink:href="#SVGID_1_"  style="overflow:visible;"/>
		</clipPath>
		<g class="st1">
			<path class="st2" d="M2743,162.9h1723v492H2743V162.9z"/>
		</g>
	</g>
</g>
<g>
	<defs>
		<path id="SVGID_3_" d="M1088.7,625.4c-23.4,0-47.4-1-72-2.9c-24.6-1.9-46.9-5-66.8-9.3l93.7-389.9c22.3-4.3,45.6-7.2,70-8.7
			c24.4-1.6,46.8-2.3,67.1-2.3c23.4,0,43.6,2.4,60.6,7.3c17,4.9,30.8,11.4,41.6,19.5c10.7,8.1,18.7,17.8,24,28.8
			c5.3,11.1,7.9,22.8,7.9,35.2c0,8.5-0.9,17.5-2.6,26.8c-1.8,9.3-5.3,18.5-10.5,27.6c-5.3,9.1-12.5,17.8-21.7,25.9
			c-9.2,8.1-21.2,15.5-36,22.1c17.6,7.8,30.5,18.3,38.7,31.7s12.3,28.2,12.3,44.5c0,18.6-3.7,36.6-11.1,53.8s-19.3,32.6-35.7,46
			c-16.4,13.4-37.7,24.1-63.8,32C1158,621.5,1126.2,625.4,1088.7,625.4L1088.7,625.4z M1080.5,443.9l-25.2,104.7
			c6.2,1.2,14.2,2,23.7,2.6c9.6,0.6,18.5,0.9,26.7,0.9c11.7,0,23.3-0.9,34.8-2.6c11.5-1.8,21.9-5,31-9.6
			c9.2-4.7,16.7-11.1,22.5-19.2c5.9-8.1,8.8-18.6,8.8-31.4c0-5.4-1.1-10.9-3.2-16.3c-2.1-5.4-5.6-10.3-10.2-14.6
			c-4.7-4.3-10.8-7.8-18.5-10.5c-7.6-2.7-16.7-4.1-27.2-4.1L1080.5,443.9L1080.5,443.9z M1097.5,375.8h57.4c23.4,0,40.9-5,52.4-15.1
			c11.5-10.1,17.3-22.1,17.3-36.1c0-7.4-1.7-13.7-5-18.9c-3.3-5.2-7.8-9.5-13.2-12.5c-5.5-3.1-11.7-5.3-18.7-6.7
			c-7.1-1.4-14.4-2-21.7-2c-8.2,0-17,0.3-26.4,0.9c-9.4,0.6-16.4,1.3-21.1,2L1097.5,375.8z M1394.7,620.2H1308l73.2-306.1h87.3
			L1394.7,620.2L1394.7,620.2z M1436.8,276.9c-12.1,0-23-3.6-32.8-10.8c-9.8-7.2-14.6-18.1-14.6-32.9c0-8.2,1.7-15.8,5-23
			c3.3-7.2,7.7-13.4,13.2-18.6c5.5-5.2,11.8-9.4,19-12.5c7.2-3.1,14.9-4.7,23.1-4.7c12.1,0,23,3.6,32.8,10.8
			c9.8,7.2,14.6,18.1,14.6,32.9c0,7.9-1.7,15.8-5,23c-3.2,7-7.7,13.3-13.2,18.6c-5.5,5.3-12,9.5-19,12.5
			C1452.6,275.4,1444.8,277,1436.8,276.9L1436.8,276.9z M1533.1,237.9l90.8-14l-22.3,90.2h97.2l-17.6,71h-96.6l-25.8,107.1
			c-2.3,8.9-3.8,17.3-4.4,25c-0.6,7.8,0.4,14.5,2.9,20.1c2.5,5.6,6.9,10,13.2,13.1c6.2,3.1,14.8,4.7,25.8,4.7
			c9.4,0,18.5-0.9,27.2-2.6c9-1.8,17.9-4.2,26.7-7.3l6.4,66.3c-12.4,4.5-25.2,8.2-38.1,11.1c-13.7,3.1-29.9,4.7-48.6,4.7
			c-26.9,0-47.8-4-62.7-11.9c-14.8-8-25.4-18.8-31.6-32.6c-6.2-13.8-9-29.6-8.2-47.4c0.8-17.8,3.5-36.7,8.2-56.4L1533.1,237.9
			L1533.1,237.9z M1677.3,498c0-26.4,4.3-51.2,12.9-74.5c8.6-23.3,20.9-43.6,36.9-61.1c16-17.5,35.4-31.2,58.3-41.3
			c22.8-10.1,48.3-15.1,76.4-15.1c17.6,0,33.3,1.7,47.1,4.9c13.9,3.3,26.5,7.7,37.8,13.1l-29.9,67.5c-8-3.2-16.1-6-24.3-8.4
			c-8.4-2.5-18.6-3.8-30.7-3.8c-29.3,0-52.3,9.8-69.1,29.4s-25.2,46.3-25.2,80c0,19.8,4.3,35.8,12.9,48
			c8.6,12.2,24.4,18.3,47.4,18.3c11.3,0,22.3-1.2,32.8-3.5c10.5-2.3,19.9-5.2,28.1-8.7l6.4,69.2c-10.9,4.3-22.9,8.1-36,11.3
			c-13.1,3.3-29,4.9-47.7,4.9c-24.2,0-44.7-3.5-61.5-10.5c-16.8-7-30.7-16.4-41.6-28.2c-10.9-11.8-18.8-25.7-23.7-41.6
			C1679.8,532.2,1677.3,515.5,1677.3,498L1677.3,498z M2041.2,628.4c-20.7,0-38.7-3.1-53.9-9.3c-15.2-6.2-27.8-14.9-37.8-26.2
			c-10-11.3-17.5-24.5-22.6-39.9c-5.1-15.3-7.6-32.3-7.6-50.9c0-23.3,3.8-46.6,11.4-69.8c7.6-23.3,18.8-44.2,33.7-62.8
			c14.8-18.6,33-33.8,54.5-45.7c21.5-11.8,46.1-17.7,73.8-17.7c20.3,0,38.2,3.1,53.6,9.3c15.4,6.2,28.1,14.9,38.1,26.2
			c10,11.3,17.5,24.5,22.6,39.9c5.1,15.3,7.6,32.3,7.6,50.9c0,23.3-3.7,46.6-11.1,69.8c-7.4,23.3-18.4,44.2-32.8,62.8
			c-14.4,18.6-32.5,33.8-54.2,45.7C2094.8,622.4,2069.8,628.4,2041.2,628.4L2041.2,628.4z M2084.6,379.3c-12.9,0-24.2,3.7-34,11.1
			c-9.8,7.4-18,16.7-24.6,27.9c-6.6,11.3-11.6,23.6-14.9,37c-3.3,13.4-5,26.1-5,38.1c0,19.8,3.1,35,9.4,45.7c6.2,10.7,17.6,16,34,16
			c12.9,0,24.2-3.7,34-11.1c9.8-7.4,18-16.7,24.6-27.9c6.6-11.3,11.6-23.6,14.9-37c3.3-13.4,5-26.1,5-38.1c0-19.8-3.1-35-9.4-45.7
			C2112.3,384.6,2101,379.3,2084.6,379.3L2084.6,379.3z M2300.3,620.2h-86.7l73.2-306.1h87.3L2300.3,620.2L2300.3,620.2z
			 M2342.5,276.9c-12.1,0-23-3.6-32.8-10.8c-9.8-7.2-14.6-18.1-14.6-32.9c0-8.2,1.7-15.8,5-23c3.3-7.2,7.7-13.4,13.2-18.6
			s11.8-9.4,19-12.5c7.3-3.1,15.2-4.7,23.1-4.7c12.1,0,23,3.6,32.8,10.8c9.8,7.2,14.6,18.1,14.6,32.9c0,7.9-1.7,15.8-5,23
			c-3.2,7-7.7,13.3-13.2,18.6c-5.5,5.3-12,9.5-19,12.5C2358.4,275.4,2350.7,276.9,2342.5,276.9L2342.5,276.9z M2425.8,328.1
			c7.3-2.2,14.7-4.4,22-6.7c8-2.5,17-4.8,26.9-7c10-2.1,21.1-3.9,33.4-5.2c12.3-1.4,26.3-2,41.9-2c46.1,0,77.7,13.2,94.9,39.6
			c17.2,26.4,20.1,62.5,8.8,108.2l-39.8,165.3h-87.3l38.7-161.8c2.3-10.1,4.2-19.9,5.6-29.4c1.4-9.5,1.3-17.8-0.3-25
			c-1.6-7.2-5.2-13-10.8-17.5c-5.7-4.5-14.4-6.7-26.1-6.7c-11.3,0-22.8,1.2-34.6,3.5l-56.8,236.8H2355L2425.8,328.1z"/>
	</defs>
	<clipPath id="SVGID_4_">
		<use xlink:href="#SVGID_3_"  style="overflow:visible;"/>
	</clipPath>
	<g class="st3">
		<path class="st0" d="M922.1,146.7h1766.1v509.4H922.1V146.7z"/>
	</g>
</g>
<path class="st0" d="M417,262.6l-26.6,106.9c30.2,7.5,123.3,38.3,138.4-22.2C544.5,284.2,447.2,270.1,417,262.6z"/>
</svg>
