<svg xmlns="http://www.w3.org/2000/svg" fill-rule="evenodd" stroke-linejoin="round" stroke-miterlimit="1.414" clip-rule="evenodd" viewBox="0 0 4439 806"><g transform="scale(5.5556)"><clipPath id="a"><path d="M142.12 90.166c-9.61 38.596-48.653 62.082-87.204 52.459C16.38 133.001-7.08 93.911 2.536 55.318 12.141 16.72 51.184-6.77 89.724 2.852c38.549 9.621 62.006 48.718 52.396 87.314z"/></clipPath><g clip-path="url(#a)"><path fill="#ffffff" fill-rule="nonzero" d="M-4.615-4.304h153.89v154.08H-4.615z"/></g><clipPath id="b"><path d="M98.005 81.934c-2.7.466-4.04.641-6.773.801-1.248.074-2.5.153-3.754.221 3.627 2.487 5.899 5.887 4.722 10.615-2.196 8.827-13.714 7.628-22.231 5.736l-2.865 11.737h.002l-.129.514-3.732 15.279 9.558 2.385 3.985-15.988c16.421 3.111 28.769 1.853 33.965-13.017 3.234-9.243.892-16.364-4.112-20.794-.107.052-.214.1-.317.137-2.325.841-5.596 1.906-8.319 2.374z"/></clipPath><g clip-path="url(#b)"><path fill="#272d63" fill-rule="nonzero" d="M58.245 74.423h58.995v59.799H58.245z"/></g><clipPath id="c"><path d="M95.178 62.507c-2.716 10.893-19.473 5.358-24.91 4.002l4.794-19.25c5.437 1.356 22.943 3.89 20.116 15.248zm3.664-37.836l-9.629-2.404-3.84 15.421a418.136 418.136 0 0 0-7.717-1.816l3.867-15.524-9.623-2.402-3.946 15.832a319.126 319.126 0 0 1-6.149-1.446l-13.27-3.369-2.563 10.298s7.146 1.638 6.997 1.741c3.898.974 4.604 3.557 4.486 5.605l-2.88 11.567-2.508 10.074-5.417 21.748c-.479 1.188-1.687 2.969-4.414 2.291.096.142-7.001-1.748-7.001-1.748l-4.779 11.034 12.532 3.129c2.331.586 4.614 1.199 6.863 1.776l-3.983 16.019 9.616 2.404 3.948-15.852 3.129-11.599 5.288-21.226c1.112.272 2.225.515 3.49.803 3.885.906 7.962 1.241 11.928 1.538 2.439.182 4.886.304 7.331.274 3.645-.046 7.364-.727 10.809-1.882 2.893-.967 6.335-2.205 8.483-4.487 2.513-2.669 3.776-6.215 4.311-9.79 1.746-11.693-7.145-17.978-19.303-22.17l3.944-15.839z"/></clipPath><g clip-path="url(#c)"><path fill="#272d63" fill-rule="nonzero" d="M25.456 12.946h93.964v116.96H25.456z"/></g><g transform="translate(0 1)"><clipPath id="d"><path d="M534.79 37.27c8.505 0 14.918 1.606 19.24 4.818s6.484 7.89 6.484 14.035c0 4.748-.897 8.85-2.689 12.306-1.792 3.457-4.34 6.302-7.643 8.537-3.303 2.234-7.274 3.892-11.913 4.975-4.638 1.082-9.804 1.623-15.497 1.623h-7.274l-6.536 27.022h-10.226l17.289-71.64c2.952-.699 6.08-1.152 9.383-1.362 3.303-.209 6.431-.314 9.382-.314zm-1.265 8.588c-4.99 0-8.012.14-9.066.419l-6.958 28.803h6.642c2.952 0 5.974-.262 9.066-.785 3.093-.524 5.869-1.449 8.329-2.776a16.91 16.91 0 0 0 6.061-5.499c1.582-2.339 2.372-5.359 2.372-9.059 0-3.98-1.476-6.826-4.427-8.536-2.952-1.711-6.958-2.567-12.019-2.567zm53.906 9.113c.844 0 1.792.035 2.847.104 1.054.07 2.091.192 3.11.367 1.019.174 1.95.349 2.793.524.844.174 1.476.366 1.898.576l-2.846 8.483c-1.406-.558-3.023-.977-4.85-1.256a34.804 34.804 0 0 0-5.271-.419c-1.476 0-2.934.104-4.375.314-1.441.209-2.688.489-3.742.838l-11.175 46.084h-9.804l12.65-52.369c2.811-.977 5.834-1.763 9.067-2.356a53.548 53.548 0 0 1 9.698-.89zm13.213 55.615h-9.804l13.178-54.463h9.804l-13.178 54.463zm11.386-64.309c-1.617 0-2.97-.488-4.059-1.466-1.089-.977-1.634-2.339-1.634-4.085 0-2.234.703-3.997 2.108-5.289 1.406-1.292 2.987-1.938 4.744-1.938 1.617 0 2.987.507 4.112 1.519 1.124 1.013 1.687 2.427 1.687 4.242 0 2.095-.738 3.788-2.214 5.08s-3.057 1.937-4.744 1.937zm13.002 64.309a227.523 227.523 0 0 1-2.425-11.73 306.078 306.078 0 0 1-2.108-13.354 286.73 286.73 0 0 1-1.582-14.402c-.421-4.957-.702-9.95-.843-14.977h9.91c.07 3.421.228 7.069.474 10.945.246 3.875.545 7.75.896 11.626.352 3.875.773 7.611 1.265 11.207s1.019 6.86 1.582 9.793c2.108-2.654 4.304-5.778 6.589-9.374a174.33 174.33 0 0 0 6.588-11.312c2.109-3.945 4.042-7.908 5.799-11.888s3.162-7.646 4.216-10.997h9.91c-1.546 4.608-3.514 9.391-5.903 14.349-2.39 4.957-4.973 9.828-7.749 14.611s-5.693 9.374-8.75 13.773-6.027 8.309-8.908 11.73h-8.961zm71.511.629a38.738 38.738 0 0 1-1.054-2.566 19.701 19.701 0 0 1-.843-2.985c-1.547 1.396-3.62 2.793-6.22 4.189-2.601 1.397-5.798 2.095-9.594 2.095-3.092 0-5.745-.489-7.959-1.466-2.214-.978-4.024-2.34-5.429-4.085-1.406-1.746-2.443-3.806-3.11-6.18-.668-2.374-1.002-4.992-1.002-7.855 0-4.678.791-9.252 2.372-13.721a35.01 35.01 0 0 1 7.116-11.94c3.163-3.491 7.134-6.319 11.913-8.484 4.779-2.164 10.366-3.246 16.762-3.246 1.898 0 4.112.209 6.642.628s4.709 1.117 6.536 2.095l-8.118 32.887c-.351 1.606-.65 3.143-.896 4.609s-.369 3.002-.369 4.608.141 3.23.422 4.871.773 3.404 1.476 5.289l-8.645 1.257zm-15.708-7.541c2.952 0 5.482-.629 7.591-1.886 2.108-1.257 3.936-2.723 5.482-4.399.07-1.187.193-2.426.369-3.718.175-1.292.404-2.601.685-3.928l6.325-25.974c-.351-.14-.931-.245-1.739-.315a25.718 25.718 0 0 0-2.161-.104c-4.006 0-7.626.768-10.859 2.304s-5.991 3.578-8.275 6.127c-2.285 2.549-4.042 5.516-5.272 8.903-1.23 3.386-1.844 6.93-1.844 10.631 0 1.466.14 2.95.421 4.451s.791 2.828 1.529 3.98 1.722 2.095 2.952 2.828 2.828 1.1 4.796 1.1zm49.9 8.379c-5.271 0-9.136-1.152-11.596-3.457-2.46-2.304-3.69-5.656-3.69-10.055 0-2.862.492-6.528 1.476-10.997l11.28-46.608 10.226-1.676-4.111 16.863h18.659l-2.003 8.169h-18.659l-5.799 24.09c-.843 3.282-1.265 6.145-1.265 8.588 0 2.305.633 3.963 1.898 4.975 1.265 1.013 3.373 1.519 6.325 1.519 2.038 0 4.041-.332 6.009-.995s3.479-1.274 4.533-1.833l.738 8.274c-1.054.629-2.846 1.31-5.376 2.043s-5.412 1.1-8.645 1.1zm30.819-30.06c4.076-.14 7.801-.402 11.174-.786 3.374-.384 6.291-1.047 8.75-1.99 2.46-.942 4.375-2.217 5.746-3.823 1.37-1.606 2.056-3.7 2.056-6.284 0-.628-.123-1.292-.369-1.99s-.668-1.344-1.265-1.937c-.598-.594-1.424-1.083-2.478-1.467s-2.354-.576-3.9-.576c-2.46 0-4.762.524-6.906 1.571a20.938 20.938 0 0 0-5.745 4.137c-1.687 1.711-3.128 3.701-4.322 5.97a32.194 32.194 0 0 0-2.741 7.175zm10.015 29.955c-3.585 0-6.677-.506-9.277-1.519-2.601-1.012-4.78-2.409-6.537-4.189a16.742 16.742 0 0 1-3.9-6.232c-.844-2.374-1.265-4.888-1.265-7.541 0-4.888.738-9.601 2.214-14.14s3.584-8.553 6.325-12.045a30.665 30.665 0 0 1 10.015-8.326c3.936-2.06 8.399-3.09 13.389-3.09 2.881 0 5.359.366 7.432 1.1 2.073.733 3.76 1.728 5.06 2.985a11.968 11.968 0 0 1 2.899 4.346c.633 1.641.949 3.334.949 5.08 0 3.282-.597 6.057-1.792 8.327-1.195 2.269-2.776 4.172-4.744 5.708s-4.27 2.723-6.905 3.561a61.463 61.463 0 0 1-8.223 1.99c-2.847.489-5.728.82-8.645.995s-5.675.332-8.275.471a11.268 11.268 0 0 0-.106 1.362v.838c0 1.606.193 3.124.58 4.556a8.508 8.508 0 0 0 2.161 3.77c1.054 1.083 2.513 1.938 4.375 2.566 1.863.629 4.305.943 7.327.943 1.335 0 2.723-.122 4.164-.366a35.59 35.59 0 0 0 4.112-.943 50.73 50.73 0 0 0 3.479-1.152c1.019-.384 1.739-.751 2.161-1.1l.843 8.274c-1.406.768-3.672 1.589-6.8 2.462-3.127.872-6.799 1.309-11.016 1.309z"/></clipPath><g clip-path="url(#d)"><path fill="#75a0d5" fill-rule="nonzero" d="M493.73 28.499h310.14v88.554H493.73z"/></g></g><clipPath id="e"><path d="M195.97 112.58c-4.216 0-8.539-.175-12.966-.524-4.428-.349-8.434-.908-12.019-1.676l16.868-70.174c4.006-.768 8.205-1.292 12.598-1.571s8.416-.419 12.071-.419c4.217 0 7.854.437 10.911 1.309 3.057.873 5.552 2.043 7.485 3.509s3.373 3.195 4.322 5.185 1.423 4.102 1.423 6.336c0 1.536-.158 3.142-.474 4.818s-.949 3.334-1.898 4.975c-.948 1.641-2.249 3.195-3.9 4.661-1.652 1.466-3.813 2.793-6.484 3.98 3.163 1.396 5.482 3.299 6.958 5.708s2.214 5.08 2.214 8.013c0 3.351-.668 6.581-2.003 9.688s-3.479 5.865-6.431 8.274-6.782 4.329-11.491 5.761c-4.709 1.431-10.436 2.147-17.184 2.147zm-1.475-32.678l-4.534 18.852c1.125.21 2.548.367 4.27.472s3.321.157 4.797.157c2.108 0 4.199-.157 6.272-.471 2.074-.315 3.936-.891 5.588-1.729 1.651-.838 3.004-1.99 4.058-3.456 1.055-1.466 1.582-3.352 1.582-5.656 0-.977-.193-1.955-.58-2.932-.387-.978-1.002-1.851-1.845-2.619s-1.95-1.396-3.321-1.885c-1.37-.489-3.004-.733-4.902-.733h-11.385zm3.057-12.255h10.331c4.217 0 7.362-.907 9.435-2.723 2.074-1.815 3.11-3.98 3.11-6.494 0-1.326-.298-2.461-.896-3.404a6.643 6.643 0 0 0-2.372-2.251c-.984-.559-2.108-.96-3.373-1.205a20.55 20.55 0 0 0-3.901-.366c-1.476 0-3.057.052-4.744.157-1.687.104-2.952.227-3.795.366l-3.795 15.92zm53.484 43.99h-15.602l13.177-55.092h15.708l-13.283 55.092zm7.59-61.795c-2.178 0-4.146-.646-5.903-1.938-1.757-1.291-2.636-3.264-2.636-5.917 0-1.467.299-2.846.896-4.137.598-1.292 1.388-2.409 2.372-3.352s2.126-1.693 3.427-2.252c1.3-.559 2.688-.838 4.164-.838 2.178 0 4.146.646 5.903 1.938s2.636 3.264 2.636 5.917a9.745 9.745 0 0 1-.896 4.138 10.97 10.97 0 0 1-2.372 3.351 11.423 11.423 0 0 1-3.426 2.252 10.436 10.436 0 0 1-4.165.838zm17.325-7.017l16.34-2.514-4.006 16.234h17.5l-3.162 12.778h-17.395l-4.639 19.272c-.421 1.606-.685 3.107-.79 4.504-.106 1.396.07 2.601.527 3.613.457 1.013 1.247 1.798 2.372 2.357 1.124.558 2.67.838 4.638.838 1.687 0 3.321-.158 4.902-.472a36.276 36.276 0 0 0 4.797-1.309l1.16 11.94a56.674 56.674 0 0 1-6.853 1.99c-2.459.559-5.376.838-8.75.838-4.849 0-8.609-.716-11.28-2.147-2.67-1.432-4.568-3.387-5.693-5.865-1.124-2.479-1.616-5.325-1.476-8.537.141-3.211.633-6.598 1.476-10.159l10.332-43.361zm25.969 46.817c0-4.748.773-9.217 2.319-13.406 1.546-4.19 3.76-7.855 6.642-10.998 2.881-3.142 6.378-5.621 10.489-7.436 4.112-1.815 8.697-2.723 13.758-2.723 3.162 0 5.991.297 8.486.89 2.495.594 4.762 1.379 6.8 2.357l-5.377 12.149a53.387 53.387 0 0 0-4.375-1.518c-1.511-.454-3.356-.681-5.534-.681-5.271 0-9.418 1.763-12.44 5.289s-4.533 8.327-4.533 14.401c0 3.562.773 6.442 2.319 8.641 1.546 2.2 4.393 3.3 8.539 3.3 2.038 0 4.006-.21 5.904-.629s3.584-.943 5.06-1.571l1.16 12.464c-1.968.768-4.129 1.449-6.484 2.042-2.354.594-5.218.89-8.592.89-4.357 0-8.047-.628-11.069-1.885s-5.517-2.95-7.485-5.08c-1.968-2.129-3.391-4.625-4.269-7.488-.879-2.863-1.318-5.866-1.318-9.008zm65.502 23.461c-3.725 0-6.958-.558-9.699-1.675-2.741-1.118-5.007-2.689-6.799-4.713-1.793-2.025-3.146-4.417-4.059-7.175-.914-2.758-1.371-5.813-1.371-9.165 0-4.189.686-8.379 2.056-12.568 1.37-4.19 3.391-7.96 6.062-11.312 2.67-3.351 5.939-6.092 9.804-8.222 3.866-2.129 8.293-3.194 13.283-3.194 3.655 0 6.87.558 9.646 1.676 2.776 1.117 5.061 2.688 6.853 4.713s3.145 4.416 4.059 7.174c.913 2.758 1.37 5.813 1.37 9.165 0 4.189-.668 8.379-2.003 12.568-1.335 4.19-3.303 7.96-5.904 11.312-2.6 3.352-5.851 6.092-9.751 8.222-3.901 2.13-8.416 3.194-13.547 3.194zm7.801-44.827c-2.319 0-4.357.663-6.114 1.99-1.757 1.326-3.233 3.002-4.428 5.027s-2.091 4.242-2.688 6.651c-.598 2.409-.896 4.696-.896 6.86 0 3.561.562 6.302 1.687 8.222 1.124 1.92 3.162 2.881 6.114 2.881 2.319 0 4.357-.664 6.114-1.99 1.758-1.327 3.233-3.003 4.428-5.028s2.091-4.242 2.688-6.651c.598-2.409.897-4.695.897-6.86 0-3.561-.563-6.302-1.687-8.222-1.125-1.92-3.163-2.88-6.115-2.88zm38.831 43.361h-15.603l13.178-55.092h15.708l-13.283 55.092zm7.59-61.795c-2.179 0-4.146-.646-5.903-1.938-1.757-1.291-2.636-3.264-2.636-5.917 0-1.467.299-2.846.896-4.137.598-1.292 1.388-2.409 2.372-3.352s2.126-1.693 3.426-2.252a10.435 10.435 0 0 1 4.164-.838c2.179 0 4.147.646 5.904 1.938s2.636 3.264 2.636 5.917a9.745 9.745 0 0 1-.896 4.138 10.97 10.97 0 0 1-2.372 3.351 11.416 11.416 0 0 1-3.427 2.252c-1.3.559-2.688.838-4.164.838zm15.005 9.217a197.81 197.81 0 0 0 3.954-1.205c1.44-.453 3.057-.872 4.849-1.256s3.795-.699 6.009-.943 4.727-.367 7.538-.367c8.293 0 13.986 2.374 17.078 7.122 3.093 4.749 3.62 11.242 1.582 19.482l-7.169 29.745h-15.708l6.958-29.117c.421-1.815.755-3.578 1.001-5.289s.229-3.212-.052-4.504c-.282-1.292-.932-2.339-1.951-3.142s-2.583-1.204-4.691-1.204c-2.038 0-4.111.209-6.22.628l-10.226 42.628h-15.708l12.756-52.578z"/></clipPath><g clip-path="url(#e)"><path fill="#ffffff" fill-rule="nonzero" d="M165.98 26.405h317.89V118.1H165.98z"/></g></g></svg>